<mxfile host="app.diagrams.net" agent="Mozilla/5.0 (Windows NT 10.0; Win64; x64) AppleWebKit/537.36 (KHTML, like Gecko) Chrome/139.0.0.0 Safari/537.36" version="28.2.1">
  <diagram name="Page-1" id="g8kA7VrgFV8I4axQgq5m">
    <mxGraphModel dx="2271" dy="933" grid="1" gridSize="10" guides="1" tooltips="1" connect="1" arrows="1" fold="1" page="1" pageScale="1" pageWidth="827" pageHeight="1169" math="0" shadow="0">
      <root>
        <mxCell id="0" />
        <mxCell id="1" parent="0" />
        <mxCell id="Igm4Fz67FGCJSC7hsA-S-1" value="Customers" style="rounded=0;whiteSpace=wrap;html=1;" vertex="1" parent="1">
          <mxGeometry x="-240" y="320" width="100" height="50" as="geometry" />
        </mxCell>
        <mxCell id="Igm4Fz67FGCJSC7hsA-S-2" value="" style="endArrow=none;html=1;rounded=0;" edge="1" parent="1">
          <mxGeometry width="50" height="50" relative="1" as="geometry">
            <mxPoint x="-240" y="320" as="sourcePoint" />
            <mxPoint x="-280" y="250" as="targetPoint" />
          </mxGeometry>
        </mxCell>
        <mxCell id="Igm4Fz67FGCJSC7hsA-S-5" value="UUID" style="ellipse;whiteSpace=wrap;html=1;fontStyle=4" vertex="1" parent="1">
          <mxGeometry x="-340" y="207.5" width="80" height="50" as="geometry" />
        </mxCell>
        <mxCell id="Igm4Fz67FGCJSC7hsA-S-6" value="" style="endArrow=none;html=1;rounded=0;" edge="1" parent="1" target="Igm4Fz67FGCJSC7hsA-S-8">
          <mxGeometry width="50" height="50" relative="1" as="geometry">
            <mxPoint x="-210" y="320" as="sourcePoint" />
            <mxPoint x="-160" y="270" as="targetPoint" />
          </mxGeometry>
        </mxCell>
        <mxCell id="Igm4Fz67FGCJSC7hsA-S-8" value="firstname" style="ellipse;whiteSpace=wrap;html=1;" vertex="1" parent="1">
          <mxGeometry x="-250" y="190" width="80" height="50" as="geometry" />
        </mxCell>
        <mxCell id="Igm4Fz67FGCJSC7hsA-S-9" value="" style="endArrow=none;html=1;rounded=0;" edge="1" parent="1">
          <mxGeometry width="50" height="50" relative="1" as="geometry">
            <mxPoint x="-155" y="320" as="sourcePoint" />
            <mxPoint x="-140" y="250" as="targetPoint" />
          </mxGeometry>
        </mxCell>
        <mxCell id="Igm4Fz67FGCJSC7hsA-S-11" value="lastname" style="ellipse;whiteSpace=wrap;html=1;" vertex="1" parent="1">
          <mxGeometry x="-160" y="207.5" width="70" height="50" as="geometry" />
        </mxCell>
        <mxCell id="Igm4Fz67FGCJSC7hsA-S-20" value="" style="endArrow=none;html=1;rounded=0;exitX=1;exitY=0.75;exitDx=0;exitDy=0;" edge="1" parent="1">
          <mxGeometry width="50" height="50" relative="1" as="geometry">
            <mxPoint x="-140" y="343.75" as="sourcePoint" />
            <mxPoint x="-40" y="346" as="targetPoint" />
            <Array as="points">
              <mxPoint x="-40" y="346.25" />
            </Array>
          </mxGeometry>
        </mxCell>
        <mxCell id="Igm4Fz67FGCJSC7hsA-S-21" value="have" style="rhombus;whiteSpace=wrap;html=1;" vertex="1" parent="1">
          <mxGeometry x="-40" y="312.5" width="60" height="65" as="geometry" />
        </mxCell>
        <mxCell id="Igm4Fz67FGCJSC7hsA-S-22" value="" style="edgeStyle=entityRelationEdgeStyle;fontSize=12;html=1;endArrow=ERoneToMany;rounded=0;" edge="1" parent="1">
          <mxGeometry width="100" height="100" relative="1" as="geometry">
            <mxPoint x="20" y="344.75" as="sourcePoint" />
            <mxPoint x="140" y="344.5" as="targetPoint" />
          </mxGeometry>
        </mxCell>
        <mxCell id="Igm4Fz67FGCJSC7hsA-S-25" value="accouts" style="rounded=0;whiteSpace=wrap;html=1;" vertex="1" parent="1">
          <mxGeometry x="140" y="320" width="100" height="50" as="geometry" />
        </mxCell>
        <mxCell id="Igm4Fz67FGCJSC7hsA-S-26" value="" style="endArrow=none;html=1;rounded=0;entryX=0;entryY=0.75;entryDx=0;entryDy=0;" edge="1" parent="1" source="Igm4Fz67FGCJSC7hsA-S-27" target="Igm4Fz67FGCJSC7hsA-S-1">
          <mxGeometry width="50" height="50" relative="1" as="geometry">
            <mxPoint x="-370" y="427.5" as="sourcePoint" />
            <mxPoint x="-355" y="357.5" as="targetPoint" />
          </mxGeometry>
        </mxCell>
        <mxCell id="Igm4Fz67FGCJSC7hsA-S-27" value="&lt;font style=&quot;font-size: 11px;&quot;&gt;register_date&lt;/font&gt;" style="ellipse;whiteSpace=wrap;html=1;" vertex="1" parent="1">
          <mxGeometry x="-330" y="407.5" width="70" height="50" as="geometry" />
        </mxCell>
        <mxCell id="Igm4Fz67FGCJSC7hsA-S-28" value="" style="endArrow=none;html=1;rounded=0;" edge="1" parent="1">
          <mxGeometry width="50" height="50" relative="1" as="geometry">
            <mxPoint x="170" y="320" as="sourcePoint" />
            <mxPoint x="130" y="250" as="targetPoint" />
          </mxGeometry>
        </mxCell>
        <mxCell id="Igm4Fz67FGCJSC7hsA-S-29" value="UUID" style="ellipse;whiteSpace=wrap;html=1;fontStyle=4" vertex="1" parent="1">
          <mxGeometry x="90" y="207.5" width="80" height="50" as="geometry" />
        </mxCell>
        <mxCell id="Igm4Fz67FGCJSC7hsA-S-30" value="" style="endArrow=none;html=1;rounded=0;" edge="1" parent="1" target="Igm4Fz67FGCJSC7hsA-S-31">
          <mxGeometry width="50" height="50" relative="1" as="geometry">
            <mxPoint x="200" y="317.5" as="sourcePoint" />
            <mxPoint x="250" y="257.5" as="targetPoint" />
          </mxGeometry>
        </mxCell>
        <mxCell id="Igm4Fz67FGCJSC7hsA-S-31" value="Count" style="ellipse;whiteSpace=wrap;html=1;fontStyle=0" vertex="1" parent="1">
          <mxGeometry x="200" y="207.5" width="80" height="50" as="geometry" />
        </mxCell>
        <mxCell id="Igm4Fz67FGCJSC7hsA-S-32" value="" style="endArrow=none;html=1;rounded=0;" edge="1" parent="1">
          <mxGeometry width="50" height="50" relative="1" as="geometry">
            <mxPoint x="-190" y="441" as="sourcePoint" />
            <mxPoint x="-200" y="370" as="targetPoint" />
          </mxGeometry>
        </mxCell>
        <mxCell id="Igm4Fz67FGCJSC7hsA-S-33" value="national code" style="ellipse;whiteSpace=wrap;html=1;" vertex="1" parent="1">
          <mxGeometry x="-230" y="427.5" width="70" height="50" as="geometry" />
        </mxCell>
        <mxCell id="Igm4Fz67FGCJSC7hsA-S-34" value="" style="endArrow=none;html=1;rounded=0;" edge="1" parent="1">
          <mxGeometry width="50" height="50" relative="1" as="geometry">
            <mxPoint x="-117.5" y="421" as="sourcePoint" />
            <mxPoint x="-152.5" y="370" as="targetPoint" />
          </mxGeometry>
        </mxCell>
        <mxCell id="Igm4Fz67FGCJSC7hsA-S-35" value="birth_date" style="ellipse;whiteSpace=wrap;html=1;" vertex="1" parent="1">
          <mxGeometry x="-150" y="417.5" width="70" height="50" as="geometry" />
        </mxCell>
        <mxCell id="Igm4Fz67FGCJSC7hsA-S-40" value="" style="endArrow=none;html=1;rounded=0;" edge="1" parent="1">
          <mxGeometry width="50" height="50" relative="1" as="geometry">
            <mxPoint x="-300" y="377.5" as="sourcePoint" />
            <mxPoint x="-240" y="330" as="targetPoint" />
          </mxGeometry>
        </mxCell>
        <mxCell id="Igm4Fz67FGCJSC7hsA-S-41" value="postal_code" style="ellipse;whiteSpace=wrap;html=1;" vertex="1" parent="1">
          <mxGeometry x="-365" y="357.5" width="70" height="50" as="geometry" />
        </mxCell>
        <mxCell id="Igm4Fz67FGCJSC7hsA-S-42" value="" style="endArrow=none;html=1;rounded=0;" edge="1" parent="1">
          <mxGeometry width="50" height="50" relative="1" as="geometry">
            <mxPoint x="-70" y="297.5" as="sourcePoint" />
            <mxPoint x="-140" y="320" as="targetPoint" />
            <Array as="points">
              <mxPoint x="-110" y="310" />
            </Array>
          </mxGeometry>
        </mxCell>
        <mxCell id="Igm4Fz67FGCJSC7hsA-S-43" value="home address" style="ellipse;whiteSpace=wrap;html=1;" vertex="1" parent="1">
          <mxGeometry x="-80" y="257.5" width="70" height="50" as="geometry" />
        </mxCell>
        <mxCell id="Igm4Fz67FGCJSC7hsA-S-45" value="" style="endArrow=none;html=1;rounded=0;exitX=0;exitY=0;exitDx=0;exitDy=0;entryX=0.975;entryY=0.72;entryDx=0;entryDy=0;entryPerimeter=0;" edge="1" parent="1" source="Igm4Fz67FGCJSC7hsA-S-1" target="Igm4Fz67FGCJSC7hsA-S-46">
          <mxGeometry width="50" height="50" relative="1" as="geometry">
            <mxPoint x="-290" y="352.5" as="sourcePoint" />
            <mxPoint x="-330" y="282.5" as="targetPoint" />
          </mxGeometry>
        </mxCell>
        <mxCell id="Igm4Fz67FGCJSC7hsA-S-46" value="education" style="ellipse;whiteSpace=wrap;html=1;fontStyle=0" vertex="1" parent="1">
          <mxGeometry x="-430" y="257.5" width="80" height="50" as="geometry" />
        </mxCell>
        <mxCell id="Igm4Fz67FGCJSC7hsA-S-48" value="" style="endArrow=none;html=1;rounded=0;exitX=0.875;exitY=0.5;exitDx=0;exitDy=0;exitPerimeter=0;" edge="1" parent="1" source="Igm4Fz67FGCJSC7hsA-S-220">
          <mxGeometry width="50" height="50" relative="1" as="geometry">
            <mxPoint x="190" y="420" as="sourcePoint" />
            <mxPoint x="189.5" y="370" as="targetPoint" />
            <Array as="points">
              <mxPoint x="189.5" y="370.25" />
            </Array>
          </mxGeometry>
        </mxCell>
        <mxCell id="Igm4Fz67FGCJSC7hsA-S-55" value="" style="verticalLabelPosition=bottom;verticalAlign=top;html=1;shape=mxgraph.basic.frame;dx=10;whiteSpace=wrap;" vertex="1" parent="1">
          <mxGeometry x="-50" y="497.5" width="100" height="60" as="geometry" />
        </mxCell>
        <mxCell id="Igm4Fz67FGCJSC7hsA-S-64" value="" style="verticalLabelPosition=bottom;verticalAlign=top;html=1;shape=mxgraph.basic.frame;dx=10;whiteSpace=wrap;" vertex="1" parent="1">
          <mxGeometry x="200" y="527.5" width="100" height="60" as="geometry" />
        </mxCell>
        <mxCell id="Igm4Fz67FGCJSC7hsA-S-65" value="Loan account" style="text;html=1;align=center;verticalAlign=middle;resizable=0;points=[];autosize=1;strokeColor=none;fillColor=none;fontSize=10;" vertex="1" parent="1">
          <mxGeometry x="210" y="542.5" width="80" height="30" as="geometry" />
        </mxCell>
        <mxCell id="Igm4Fz67FGCJSC7hsA-S-80" value="" style="endArrow=none;html=1;rounded=0;exitX=0;exitY=1;exitDx=0;exitDy=0;" edge="1" parent="1" source="Igm4Fz67FGCJSC7hsA-S-81">
          <mxGeometry width="50" height="50" relative="1" as="geometry">
            <mxPoint x="275" y="398.5" as="sourcePoint" />
            <mxPoint x="240" y="347.5" as="targetPoint" />
          </mxGeometry>
        </mxCell>
        <mxCell id="Igm4Fz67FGCJSC7hsA-S-81" value="customer_id" style="ellipse;whiteSpace=wrap;html=1;" vertex="1" parent="1">
          <mxGeometry x="280" y="257.5" width="70" height="50" as="geometry" />
        </mxCell>
        <mxCell id="Igm4Fz67FGCJSC7hsA-S-91" value="current_account" style="text;html=1;align=center;verticalAlign=middle;resizable=0;points=[];autosize=1;strokeColor=none;fillColor=none;fontSize=10;" vertex="1" parent="1">
          <mxGeometry x="-50" y="512.5" width="100" height="30" as="geometry" />
        </mxCell>
        <mxCell id="Igm4Fz67FGCJSC7hsA-S-116" value="" style="endArrow=none;html=1;rounded=0;entryX=0.5;entryY=0;entryDx=0;entryDy=0;" edge="1" target="Igm4Fz67FGCJSC7hsA-S-117" parent="1">
          <mxGeometry width="50" height="50" relative="1" as="geometry">
            <mxPoint x="-50" y="537.5" as="sourcePoint" />
            <mxPoint x="-280" y="680" as="targetPoint" />
          </mxGeometry>
        </mxCell>
        <mxCell id="Igm4Fz67FGCJSC7hsA-S-117" value="account_number" style="ellipse;whiteSpace=wrap;html=1;fontStyle=0;fontSize=9;" vertex="1" parent="1">
          <mxGeometry x="-360" y="477.5" width="80" height="50" as="geometry" />
        </mxCell>
        <mxCell id="Igm4Fz67FGCJSC7hsA-S-118" value="account_number" style="ellipse;whiteSpace=wrap;html=1;fontStyle=0;fontSize=9;" vertex="1" parent="1">
          <mxGeometry x="200" y="720" width="80" height="50" as="geometry" />
        </mxCell>
        <mxCell id="Igm4Fz67FGCJSC7hsA-S-119" value="" style="endArrow=none;html=1;rounded=0;exitX=0.6;exitY=1.033;exitDx=0;exitDy=0;exitPerimeter=0;entryX=0.5;entryY=0;entryDx=0;entryDy=0;" edge="1" parent="1" source="Igm4Fz67FGCJSC7hsA-S-64" target="Igm4Fz67FGCJSC7hsA-S-118">
          <mxGeometry width="50" height="50" relative="1" as="geometry">
            <mxPoint x="260" y="592.5" as="sourcePoint" />
            <mxPoint x="220" y="642.5" as="targetPoint" />
          </mxGeometry>
        </mxCell>
        <mxCell id="Igm4Fz67FGCJSC7hsA-S-120" value="statsu" style="ellipse;whiteSpace=wrap;html=1;fontStyle=0;fontSize=11;" vertex="1" parent="1">
          <mxGeometry x="110" y="740" width="80" height="50" as="geometry" />
        </mxCell>
        <mxCell id="Igm4Fz67FGCJSC7hsA-S-121" value="" style="endArrow=none;html=1;rounded=0;exitX=0;exitY=0;exitDx=25;exitDy=60;exitPerimeter=0;entryX=0.5;entryY=0;entryDx=0;entryDy=0;" edge="1" parent="1" source="Igm4Fz67FGCJSC7hsA-S-64" target="Igm4Fz67FGCJSC7hsA-S-120">
          <mxGeometry width="50" height="50" relative="1" as="geometry">
            <mxPoint x="200" y="667.5" as="sourcePoint" />
            <mxPoint x="160" y="720.5" as="targetPoint" />
          </mxGeometry>
        </mxCell>
        <mxCell id="Igm4Fz67FGCJSC7hsA-S-122" value="status" style="ellipse;whiteSpace=wrap;html=1;fontStyle=0;fontSize=11;" vertex="1" parent="1">
          <mxGeometry x="-155" y="622.5" width="80" height="50" as="geometry" />
        </mxCell>
        <mxCell id="Igm4Fz67FGCJSC7hsA-S-123" value="" style="endArrow=none;html=1;rounded=0;exitX=0.6;exitY=1.033;exitDx=0;exitDy=0;exitPerimeter=0;entryX=0.425;entryY=0.02;entryDx=0;entryDy=0;entryPerimeter=0;" edge="1" parent="1" target="Igm4Fz67FGCJSC7hsA-S-122">
          <mxGeometry width="50" height="50" relative="1" as="geometry">
            <mxPoint y="557.5" as="sourcePoint" />
            <mxPoint x="-40" y="610.5" as="targetPoint" />
          </mxGeometry>
        </mxCell>
        <mxCell id="Igm4Fz67FGCJSC7hsA-S-136" value="created_at" style="ellipse;whiteSpace=wrap;html=1;fontStyle=0;fontSize=11;" vertex="1" parent="1">
          <mxGeometry x="-370" y="572.5" width="80" height="50" as="geometry" />
        </mxCell>
        <mxCell id="Igm4Fz67FGCJSC7hsA-S-137" value="" style="endArrow=none;html=1;rounded=0;exitX=0;exitY=0;exitDx=0;exitDy=45;exitPerimeter=0;entryX=0.425;entryY=0.02;entryDx=0;entryDy=0;entryPerimeter=0;" edge="1" target="Igm4Fz67FGCJSC7hsA-S-136" parent="1" source="Igm4Fz67FGCJSC7hsA-S-55">
          <mxGeometry width="50" height="50" relative="1" as="geometry">
            <mxPoint x="-390" y="670.5" as="sourcePoint" />
            <mxPoint x="-430" y="723.5" as="targetPoint" />
          </mxGeometry>
        </mxCell>
        <mxCell id="Igm4Fz67FGCJSC7hsA-S-138" value="created_at" style="ellipse;whiteSpace=wrap;html=1;fontStyle=0;fontSize=11;" vertex="1" parent="1">
          <mxGeometry x="320" y="730" width="80" height="50" as="geometry" />
        </mxCell>
        <mxCell id="Igm4Fz67FGCJSC7hsA-S-139" value="" style="endArrow=none;html=1;rounded=0;exitX=0.83;exitY=1.017;exitDx=0;exitDy=0;exitPerimeter=0;entryX=0.425;entryY=0.02;entryDx=0;entryDy=0;entryPerimeter=0;" edge="1" target="Igm4Fz67FGCJSC7hsA-S-138" parent="1" source="Igm4Fz67FGCJSC7hsA-S-64">
          <mxGeometry width="50" height="50" relative="1" as="geometry">
            <mxPoint x="-380" y="680.5" as="sourcePoint" />
            <mxPoint x="-420" y="733.5" as="targetPoint" />
          </mxGeometry>
        </mxCell>
        <mxCell id="Igm4Fz67FGCJSC7hsA-S-154" value="balance" style="ellipse;whiteSpace=wrap;html=1;fontStyle=0;fontSize=11;" vertex="1" parent="1">
          <mxGeometry x="-260" y="587.5" width="80" height="50" as="geometry" />
        </mxCell>
        <mxCell id="Igm4Fz67FGCJSC7hsA-S-155" value="" style="endArrow=none;html=1;rounded=0;entryX=0.425;entryY=0.02;entryDx=0;entryDy=0;entryPerimeter=0;exitX=0.33;exitY=1.033;exitDx=0;exitDy=0;exitPerimeter=0;" edge="1" target="Igm4Fz67FGCJSC7hsA-S-154" parent="1" source="Igm4Fz67FGCJSC7hsA-S-55">
          <mxGeometry width="50" height="50" relative="1" as="geometry">
            <mxPoint x="-400" y="732.5" as="sourcePoint" />
            <mxPoint x="-440" y="785.5" as="targetPoint" />
          </mxGeometry>
        </mxCell>
        <mxCell id="Igm4Fz67FGCJSC7hsA-S-156" value="balance" style="ellipse;whiteSpace=wrap;html=1;fontStyle=0;fontSize=11;" vertex="1" parent="1">
          <mxGeometry y="750" width="80" height="50" as="geometry" />
        </mxCell>
        <mxCell id="Igm4Fz67FGCJSC7hsA-S-157" value="" style="endArrow=none;html=1;rounded=0;exitX=0.16;exitY=1.017;exitDx=0;exitDy=0;exitPerimeter=0;entryX=0.425;entryY=0.02;entryDx=0;entryDy=0;entryPerimeter=0;" edge="1" target="Igm4Fz67FGCJSC7hsA-S-156" parent="1" source="Igm4Fz67FGCJSC7hsA-S-64">
          <mxGeometry width="50" height="50" relative="1" as="geometry">
            <mxPoint x="-390" y="742.5" as="sourcePoint" />
            <mxPoint x="-430" y="795.5" as="targetPoint" />
          </mxGeometry>
        </mxCell>
        <mxCell id="Igm4Fz67FGCJSC7hsA-S-170" value="has" style="rhombus;whiteSpace=wrap;html=1;" vertex="1" parent="1">
          <mxGeometry x="490" y="437.5" width="60" height="65" as="geometry" />
        </mxCell>
        <mxCell id="Igm4Fz67FGCJSC7hsA-S-171" value="" style="endArrow=none;html=1;rounded=0;elbow=vertical;entryX=0;entryY=0.5;entryDx=0;entryDy=0;exitX=0;exitY=0;exitDx=100;exitDy=45;exitPerimeter=0;" edge="1" parent="1" source="Igm4Fz67FGCJSC7hsA-S-64" target="Igm4Fz67FGCJSC7hsA-S-170">
          <mxGeometry relative="1" as="geometry">
            <mxPoint x="120" y="700" as="sourcePoint" />
            <mxPoint x="280" y="700" as="targetPoint" />
          </mxGeometry>
        </mxCell>
        <mxCell id="Igm4Fz67FGCJSC7hsA-S-172" value="" style="endArrow=none;html=1;rounded=0;elbow=vertical;entryX=0.5;entryY=1;entryDx=0;entryDy=0;exitX=0.993;exitY=0.65;exitDx=0;exitDy=0;exitPerimeter=0;" edge="1" parent="1" source="Igm4Fz67FGCJSC7hsA-S-91" target="Igm4Fz67FGCJSC7hsA-S-170">
          <mxGeometry relative="1" as="geometry">
            <mxPoint x="310" y="583" as="sourcePoint" />
            <mxPoint x="500" y="480" as="targetPoint" />
          </mxGeometry>
        </mxCell>
        <mxCell id="Igm4Fz67FGCJSC7hsA-S-173" value="" style="edgeStyle=entityRelationEdgeStyle;fontSize=12;html=1;endArrow=ERzeroToMany;endFill=1;rounded=0;elbow=vertical;exitX=0.5;exitY=0;exitDx=0;exitDy=0;entryX=0;entryY=0.5;entryDx=0;entryDy=0;" edge="1" parent="1" source="Igm4Fz67FGCJSC7hsA-S-170" target="Igm4Fz67FGCJSC7hsA-S-175">
          <mxGeometry width="100" height="100" relative="1" as="geometry">
            <mxPoint x="150" y="620" as="sourcePoint" />
            <mxPoint x="490" y="240" as="targetPoint" />
          </mxGeometry>
        </mxCell>
        <mxCell id="Igm4Fz67FGCJSC7hsA-S-174" value="" style="edgeStyle=entityRelationEdgeStyle;fontSize=12;html=1;endArrow=ERzeroToMany;endFill=1;rounded=0;elbow=vertical;" edge="1" parent="1" target="Igm4Fz67FGCJSC7hsA-S-175">
          <mxGeometry width="100" height="100" relative="1" as="geometry">
            <mxPoint x="550" y="467.5" as="sourcePoint" />
            <mxPoint x="650" y="367.5" as="targetPoint" />
          </mxGeometry>
        </mxCell>
        <mxCell id="Igm4Fz67FGCJSC7hsA-S-175" value="Transactios" style="rounded=0;whiteSpace=wrap;html=1;" vertex="1" parent="1">
          <mxGeometry x="540" y="250" width="100" height="50" as="geometry" />
        </mxCell>
        <mxCell id="Igm4Fz67FGCJSC7hsA-S-176" value="" style="endArrow=none;html=1;rounded=0;exitX=0.25;exitY=0;exitDx=0;exitDy=0;" edge="1" target="Igm4Fz67FGCJSC7hsA-S-177" parent="1" source="Igm4Fz67FGCJSC7hsA-S-175">
          <mxGeometry width="50" height="50" relative="1" as="geometry">
            <mxPoint x="570" y="240" as="sourcePoint" />
            <mxPoint x="630" y="110" as="targetPoint" />
          </mxGeometry>
        </mxCell>
        <mxCell id="Igm4Fz67FGCJSC7hsA-S-177" value="left_amount" style="ellipse;whiteSpace=wrap;html=1;fontStyle=0" vertex="1" parent="1">
          <mxGeometry x="360" y="60" width="80" height="50" as="geometry" />
        </mxCell>
        <mxCell id="Igm4Fz67FGCJSC7hsA-S-178" value="" style="endArrow=none;html=1;rounded=0;exitX=0.59;exitY=-0.02;exitDx=0;exitDy=0;exitPerimeter=0;" edge="1" target="Igm4Fz67FGCJSC7hsA-S-179" parent="1" source="Igm4Fz67FGCJSC7hsA-S-175">
          <mxGeometry width="50" height="50" relative="1" as="geometry">
            <mxPoint x="600" y="240" as="sourcePoint" />
            <mxPoint x="640" y="120" as="targetPoint" />
          </mxGeometry>
        </mxCell>
        <mxCell id="Igm4Fz67FGCJSC7hsA-S-179" value="date" style="ellipse;whiteSpace=wrap;html=1;fontStyle=0" vertex="1" parent="1">
          <mxGeometry x="510" y="50" width="80" height="50" as="geometry" />
        </mxCell>
        <mxCell id="Igm4Fz67FGCJSC7hsA-S-180" value="" style="endArrow=none;html=1;rounded=0;" edge="1" target="Igm4Fz67FGCJSC7hsA-S-181" parent="1">
          <mxGeometry width="50" height="50" relative="1" as="geometry">
            <mxPoint x="630" y="250" as="sourcePoint" />
            <mxPoint x="680" y="190" as="targetPoint" />
          </mxGeometry>
        </mxCell>
        <mxCell id="Igm4Fz67FGCJSC7hsA-S-181" value="&lt;u&gt;UUID&lt;/u&gt;" style="ellipse;whiteSpace=wrap;html=1;fontStyle=0" vertex="1" parent="1">
          <mxGeometry x="630" y="140" width="80" height="50" as="geometry" />
        </mxCell>
        <mxCell id="Igm4Fz67FGCJSC7hsA-S-182" value="" style="endArrow=none;html=1;rounded=0;exitX=-0.01;exitY=0.14;exitDx=0;exitDy=0;exitPerimeter=0;" edge="1" target="Igm4Fz67FGCJSC7hsA-S-183" parent="1" source="Igm4Fz67FGCJSC7hsA-S-175">
          <mxGeometry width="50" height="50" relative="1" as="geometry">
            <mxPoint x="530" y="250" as="sourcePoint" />
            <mxPoint x="460" y="210" as="targetPoint" />
          </mxGeometry>
        </mxCell>
        <mxCell id="Igm4Fz67FGCJSC7hsA-S-183" value="L_account_id" style="ellipse;whiteSpace=wrap;html=1;fontStyle=0" vertex="1" parent="1">
          <mxGeometry x="360" y="220" width="80" height="50" as="geometry" />
        </mxCell>
        <mxCell id="Igm4Fz67FGCJSC7hsA-S-184" value="" style="endArrow=none;html=1;rounded=0;exitX=0.75;exitY=0;exitDx=0;exitDy=0;" edge="1" target="Igm4Fz67FGCJSC7hsA-S-185" parent="1" source="Igm4Fz67FGCJSC7hsA-S-175">
          <mxGeometry width="50" height="50" relative="1" as="geometry">
            <mxPoint x="620" y="240" as="sourcePoint" />
            <mxPoint x="675" y="80" as="targetPoint" />
          </mxGeometry>
        </mxCell>
        <mxCell id="Igm4Fz67FGCJSC7hsA-S-185" value="C_account_id" style="ellipse;whiteSpace=wrap;html=1;fontStyle=0" vertex="1" parent="1">
          <mxGeometry x="625" y="30" width="80" height="50" as="geometry" />
        </mxCell>
        <mxCell id="Igm4Fz67FGCJSC7hsA-S-192" value="" style="ellipse;whiteSpace=wrap;html=1;" vertex="1" parent="1">
          <mxGeometry x="-490" y="312.5" width="88" height="65" as="geometry" />
        </mxCell>
        <mxCell id="Igm4Fz67FGCJSC7hsA-S-193" value="&lt;font style=&quot;font-size: 11px;&quot;&gt;phone_number&lt;/font&gt;" style="ellipse;whiteSpace=wrap;html=1;" vertex="1" parent="1">
          <mxGeometry x="-486" y="317.5" width="80" height="55" as="geometry" />
        </mxCell>
        <mxCell id="Igm4Fz67FGCJSC7hsA-S-197" value="" style="endArrow=none;html=1;rounded=0;exitX=0;exitY=0.25;exitDx=0;exitDy=0;" edge="1" parent="1" source="Igm4Fz67FGCJSC7hsA-S-1">
          <mxGeometry width="50" height="50" relative="1" as="geometry">
            <mxPoint x="-230" y="330" as="sourcePoint" />
            <mxPoint x="-400" y="340" as="targetPoint" />
          </mxGeometry>
        </mxCell>
        <mxCell id="Igm4Fz67FGCJSC7hsA-S-203" value="" style="endArrow=none;html=1;rounded=0;" edge="1" parent="1" target="Igm4Fz67FGCJSC7hsA-S-204">
          <mxGeometry width="50" height="50" relative="1" as="geometry">
            <mxPoint x="-15" y="271.25" as="sourcePoint" />
            <mxPoint y="201.25" as="targetPoint" />
          </mxGeometry>
        </mxCell>
        <mxCell id="Igm4Fz67FGCJSC7hsA-S-204" value="town" style="ellipse;whiteSpace=wrap;html=1;" vertex="1" parent="1">
          <mxGeometry x="-15" y="80" width="70" height="50" as="geometry" />
        </mxCell>
        <mxCell id="Igm4Fz67FGCJSC7hsA-S-205" value="" style="endArrow=none;html=1;rounded=0;exitX=0.664;exitY=0.021;exitDx=0;exitDy=0;exitPerimeter=0;" edge="1" parent="1" source="Igm4Fz67FGCJSC7hsA-S-43">
          <mxGeometry width="50" height="50" relative="1" as="geometry">
            <mxPoint x="-75" y="193.75" as="sourcePoint" />
            <mxPoint x="-60" y="123.75" as="targetPoint" />
          </mxGeometry>
        </mxCell>
        <mxCell id="Igm4Fz67FGCJSC7hsA-S-206" value="city" style="ellipse;whiteSpace=wrap;html=1;" vertex="1" parent="1">
          <mxGeometry x="-100" y="80" width="70" height="50" as="geometry" />
        </mxCell>
        <mxCell id="Igm4Fz67FGCJSC7hsA-S-208" value="" style="endArrow=none;html=1;rounded=0;exitX=0;exitY=0;exitDx=0;exitDy=0;entryX=1;entryY=1;entryDx=0;entryDy=0;" edge="1" parent="1" source="Igm4Fz67FGCJSC7hsA-S-43" target="Igm4Fz67FGCJSC7hsA-S-209">
          <mxGeometry width="50" height="50" relative="1" as="geometry">
            <mxPoint x="-24" y="269" as="sourcePoint" />
            <mxPoint x="-50" y="133.75" as="targetPoint" />
          </mxGeometry>
        </mxCell>
        <mxCell id="Igm4Fz67FGCJSC7hsA-S-209" value="province" style="ellipse;whiteSpace=wrap;html=1;" vertex="1" parent="1">
          <mxGeometry x="-180" y="90" width="70" height="50" as="geometry" />
        </mxCell>
        <mxCell id="Igm4Fz67FGCJSC7hsA-S-211" value="" style="endArrow=none;html=1;rounded=0;exitX=0.983;exitY=0.361;exitDx=0;exitDy=0;exitPerimeter=0;" edge="1" target="Igm4Fz67FGCJSC7hsA-S-212" parent="1" source="Igm4Fz67FGCJSC7hsA-S-43">
          <mxGeometry width="50" height="50" relative="1" as="geometry">
            <mxPoint x="70" y="291.25" as="sourcePoint" />
            <mxPoint x="85" y="221.25" as="targetPoint" />
          </mxGeometry>
        </mxCell>
        <mxCell id="Igm4Fz67FGCJSC7hsA-S-212" value="home info" style="ellipse;whiteSpace=wrap;html=1;" vertex="1" parent="1">
          <mxGeometry x="70" y="100" width="70" height="50" as="geometry" />
        </mxCell>
        <mxCell id="Igm4Fz67FGCJSC7hsA-S-220" value="&lt;font style=&quot;font-size: 13px;&quot;&gt;ISA&lt;/font&gt;" style="triangle;whiteSpace=wrap;html=1;direction=north;" vertex="1" parent="1">
          <mxGeometry x="150" y="422.5" width="80" height="60" as="geometry" />
        </mxCell>
        <mxCell id="Igm4Fz67FGCJSC7hsA-S-222" value="Overlap" style="text;html=1;align=center;verticalAlign=middle;resizable=0;points=[];autosize=1;strokeColor=none;fillColor=none;" vertex="1" parent="1">
          <mxGeometry x="210" y="427.5" width="70" height="30" as="geometry" />
        </mxCell>
        <mxCell id="Igm4Fz67FGCJSC7hsA-S-223" value="&lt;u&gt;account_id&lt;/u&gt;" style="ellipse;whiteSpace=wrap;html=1;fontStyle=0;fontSize=11;" vertex="1" parent="1">
          <mxGeometry x="-118" y="750" width="80" height="50" as="geometry" />
        </mxCell>
        <mxCell id="Igm4Fz67FGCJSC7hsA-S-224" value="" style="endArrow=none;html=1;rounded=0;exitX=0;exitY=1;exitDx=0;exitDy=0;exitPerimeter=0;entryX=0.425;entryY=0.02;entryDx=0;entryDy=0;entryPerimeter=0;" edge="1" target="Igm4Fz67FGCJSC7hsA-S-223" parent="1" source="Igm4Fz67FGCJSC7hsA-S-64">
          <mxGeometry width="50" height="50" relative="1" as="geometry">
            <mxPoint x="-155" y="609" as="sourcePoint" />
            <mxPoint x="-858" y="753.5" as="targetPoint" />
          </mxGeometry>
        </mxCell>
        <mxCell id="Igm4Fz67FGCJSC7hsA-S-225" value="&lt;u&gt;account_id&lt;/u&gt;" style="ellipse;whiteSpace=wrap;html=1;fontStyle=0;fontSize=11;" vertex="1" parent="1">
          <mxGeometry x="-60" y="632.5" width="80" height="50" as="geometry" />
        </mxCell>
        <mxCell id="Igm4Fz67FGCJSC7hsA-S-226" value="" style="endArrow=none;html=1;rounded=0;exitX=0.859;exitY=1.059;exitDx=0;exitDy=0;exitPerimeter=0;entryX=0.425;entryY=0.02;entryDx=0;entryDy=0;entryPerimeter=0;" edge="1" target="Igm4Fz67FGCJSC7hsA-S-225" parent="1" source="Igm4Fz67FGCJSC7hsA-S-55">
          <mxGeometry width="50" height="50" relative="1" as="geometry">
            <mxPoint x="75" y="567.5" as="sourcePoint" />
            <mxPoint x="35" y="620.5" as="targetPoint" />
          </mxGeometry>
        </mxCell>
        <mxCell id="Igm4Fz67FGCJSC7hsA-S-227" value="" style="endArrow=none;html=1;rounded=0;exitX=0;exitY=0;exitDx=0;exitDy=0;" edge="1" target="Igm4Fz67FGCJSC7hsA-S-228" parent="1" source="Igm4Fz67FGCJSC7hsA-S-175">
          <mxGeometry width="50" height="50" relative="1" as="geometry">
            <mxPoint x="379" y="300" as="sourcePoint" />
            <mxPoint x="420" y="171" as="targetPoint" />
          </mxGeometry>
        </mxCell>
        <mxCell id="Igm4Fz67FGCJSC7hsA-S-228" value="transaction_amount" style="ellipse;whiteSpace=wrap;html=1;fontStyle=0;fontSize=9;" vertex="1" parent="1">
          <mxGeometry x="280" y="100" width="90" height="51" as="geometry" />
        </mxCell>
        <mxCell id="Igm4Fz67FGCJSC7hsA-S-229" value="" style="endArrow=none;html=1;rounded=0;exitX=0;exitY=1;exitDx=0;exitDy=0;entryX=1;entryY=0.75;entryDx=0;entryDy=0;" edge="1" source="Igm4Fz67FGCJSC7hsA-S-230" parent="1" target="Igm4Fz67FGCJSC7hsA-S-25">
          <mxGeometry width="50" height="50" relative="1" as="geometry">
            <mxPoint x="285" y="408.5" as="sourcePoint" />
            <mxPoint x="250" y="357.5" as="targetPoint" />
          </mxGeometry>
        </mxCell>
        <mxCell id="Igm4Fz67FGCJSC7hsA-S-230" value="total_amount" style="ellipse;whiteSpace=wrap;html=1;" vertex="1" parent="1">
          <mxGeometry x="310" y="320" width="80" height="57.5" as="geometry" />
        </mxCell>
        <mxCell id="Igm4Fz67FGCJSC7hsA-S-232" value="" style="endArrow=none;html=1;rounded=0;exitX=0.007;exitY=0.035;exitDx=0;exitDy=0;exitPerimeter=0;entryX=1.007;entryY=0.39;entryDx=0;entryDy=0;entryPerimeter=0;" edge="1" parent="1" source="Igm4Fz67FGCJSC7hsA-S-220" target="Igm4Fz67FGCJSC7hsA-S-91">
          <mxGeometry width="50" height="50" relative="1" as="geometry">
            <mxPoint x="20" y="451.38" as="sourcePoint" />
            <mxPoint x="40" y="523" as="targetPoint" />
            <Array as="points" />
          </mxGeometry>
        </mxCell>
        <mxCell id="Igm4Fz67FGCJSC7hsA-S-234" value="" style="endArrow=none;html=1;rounded=0;entryX=0.007;entryY=0.982;entryDx=0;entryDy=0;entryPerimeter=0;exitX=0.5;exitY=0;exitDx=0;exitDy=0;exitPerimeter=0;" edge="1" parent="1" source="Igm4Fz67FGCJSC7hsA-S-64" target="Igm4Fz67FGCJSC7hsA-S-220">
          <mxGeometry width="50" height="50" relative="1" as="geometry">
            <mxPoint x="-145" y="330" as="sourcePoint" />
            <mxPoint x="-130" y="260" as="targetPoint" />
          </mxGeometry>
        </mxCell>
      </root>
    </mxGraphModel>
  </diagram>
</mxfile>
